# xmcd
#
# Track frame offsets: 
#        150
#        17444
#        35690
#        54377
#        72198
#        94501
#        111384
#        128801
#        145999
#        160634
#        181160
#        200747
#        216555
#        237942
#        257547
#        280680
#        313188
#        329613
#
# Disc length: 4613 seconds
#
# Revision: 0
# Processed by: cddbd v1.5.2PL0 Copyright (c) Steve Scherf et al.
# Submitted via: ExactAudioCopyFreeDBPlugin 1.0
#
DISCID=09120312
DTITLE=danny vera  - pressure makes diamonds
DYEAR=2019
DGENRE=Folk/Rock
TTITLE0=Born Again
TTITLE1=The Outsider
TTITLE2=Every Time
TTITLE3=Oblivious Desire
TTITLE4=Veins
TTITLE5=Pompadour Hippie
TTITLE6=You
TTITLE7=Tomorrow Will Be Mine
TTITLE8=Fallen King
TTITLE9=Pressure Makes Diamonds
TTITLE10=Ghost
TTITLE11=Distant Rumble
TTITLE12=Roller Coaster
TTITLE13=Next Night Flight
TTITLE14=Expandable Time
TTITLE15=Honey South
TTITLE16=Snow in April
TTITLE17=L.O.V.E.
EXTD=
EXTT0=
EXTT1=
EXTT2=
EXTT3=
EXTT4=
EXTT5=
EXTT6=
EXTT7=
EXTT8=
EXTT9=
EXTT10=
EXTT11=
EXTT12=
EXTT13=
EXTT14=
EXTT15=
EXTT16=
EXTT17=
PLAYORDER=
